<svg version="1.1" id="圖層_1" xmlns="http://www.w3.org/2000/svg" x="0" y="0" viewBox="0 0 100 100" xml:space="preserve" style="margin: initial; display: block; shape-rendering: auto; background: transpatent;" preserveAspectRatio="xMidYMid" width="200" height="200"><g class="ldl-scale" style="transform-origin: 50% 50%; transform: rotate(0deg) scale(0.8, 0.8);"><g class="ldl-ani"><g class="ldl-layer"><g class="ldl-ani" style="opacity: 1; transform-origin: 50px 50px; transform: matrix3d(0.91, 0, 0, 0, 0, 0.91, 0, 0, 0, 0, 0.91, 0, 0, 0, 0, 1); animation: 1s linear -0.75s infinite normal forwards running animate; transform-box: view-box;"><path d="M85.889 26.091v25.576c0 6.863-6.067 12.434-12.986 12.434H38.902c-1.068 2.833-2.531 4.585-4.335 6.619.7.213 1.442-.008 2.212-.008h28.297c1.815 7.556 6.647 13.057 14.203 15.244V70.711h3.066c5.609 0 10.156-4.547 10.156-10.156V33.857c-.001-4.133-2.834-7.504-6.612-7.766z" fill="#849b87" style="fill: rgb(70, 174, 228);"></path></g></g><g class="ldl-layer"><g class="ldl-ani" style="opacity: 1; transform-origin: 50px 50px; transform: matrix3d(0.91, 0, 0, 0, 0, 0.91, 0, 0, 0, 0, 0.91, 0, 0, 0, 0, 1); animation: 1s linear -1s infinite normal forwards running animate; transform-box: view-box;"><path d="M14.892 14.045H72.83a7.392 7.392 0 0 1 7.392 7.392v29.952c0 4.394-3.595 7.989-7.989 7.989H35.397c-1.815 6.611-7.12 11.97-13.731 14.158V59.378h-6.24c-4.36 0-7.927-3.567-7.927-7.927V21.437c.001-4.066 3.327-7.392 7.393-7.392z" fill="#abbd81" style="fill: rgb(205, 99, 231);"></path></g></g></g></g></svg>
